<svg xmlns="http://www.w3.org/2000/svg" viewBox="0 0 27 27"><path d="M1 1h7v7h-7zM9 1h1v1h2v1h-1v1h1v1h2v1h-4v-1h-1v-1h1v-1h-1zM17 1h1v2h-1zM19 1h7v7h-7zM2 2v5h5v-5zM13 2h1v1h1v-1h1v2h2v1h-1v1h-1v3h1v1h-2v-5h-1v-1h-1zM20 2v5h5v-5zM3 3h3v3h-3zM21 3h3v3h-3zM17 6h1v2h-1zM9 7h1v1h1v-1h1v1h1v-1h1v3h-1v-1h-1v1h-1v1h-1v1h-1v-2h1v-1h-1zM1 9h1v1h-1zM3 9h2v2h3v1h-2v1h2v-1h1v1h1v1h-4v1h-1v1h-3v-3h-1v-2h1v1h1v3h1v-1h1v-2h-1v-2h-1zM6 9h3v1h-3zM19 9h1v1h-1zM22 9h1v1h1v-1h2v1h-1v2h-1v-1h-2zM2 10h1v1h-1zM18 10h1v1h-1zM12 11h2v1h1v2h-1v-1h-1v-1h-1zM20 11h2v1h-1v1h-1zM10 12h2v1h1v2h-2v3h-1v3h-1v-3h-4v-1h3v-1h1v1h1v-1h-1v-1h1v-1h1v-1h-1zM16 12h3v1h1v1h1v-1h1v2h-1v2h1v-1h1v1h1v1h2v2h-1v-1h-3v1h1v1h-1v3h-1v1h-1v-1h-1v1h1v1h-2v-3h-1v-4h-2v1h-1v1h-1v-1h-1v-1h1v-1h1v-1h2v-1h1v1h1v-3h-1v1h-1zM23 12h1v1h2v2h-1v1h1v1h-2v-3h-1zM7 15h1v1h-1zM13 15h1v2h-1zM19 15v1h1v-1zM1 16h1v1h-1zM12 17h1v1h-1zM18 18v3h3v-3zM1 19h7v7h-7zM19 19h1v1h-1zM2 20v5h5v-5zM11 20h1v1h-1zM24 20h1v1h-1zM3 21h3v3h-3zM10 21h1v1h-1zM12 21h1v1h-1zM15 21h1v1h-1zM25 21h1v2h-1v1h-1v-2h1zM9 22h1v2h-1zM13 22h1v1h-1zM20 22v1h1v-1zM12 23h1v1h1v-1h3v3h-1v-2h-1v2h-1v-1h-3v1h-2v-1h1v-1h2zM23 24h1v1h2v1h-3zM21 25h1v1h-1z"/></svg>