<svg xmlns="http://www.w3.org/2000/svg" viewBox="0 0 27 27"><path d="M1 1h7v7h-7zM10 1h2v1h-1v1h-1zM13 1h1v1h1v1h-1v1h1v-1h1v1h1v1h-3v1h-1v-3h-1v-1h1zM15 1h1v1h-1zM19 1h7v7h-7zM2 2v5h5v-5zM16 2h1v1h-1zM20 2v5h5v-5zM3 3h3v3h-3zM9 3h1v2h1v1h-1v2h1v-2h1v3h1v1h-1v2h1v-1h1v2h-1v1h-1v1h-1v-4h-3v-1h2v-1h-1zM11 3h1v2h-1zM21 3h3v3h-3zM17 5h1v1h-1zM16 6h1v1h-1zM13 7h1v2h-1zM15 7h1v1h1v-1h1v2h-1v1h-1v-1h-1zM1 9h1v3h1v-1h2v-1h-2v-1h5v1h-1v1h1v1h-1v1h1v1h-1v1h1v1h-3v1h1v1h-3v-3h3v-3h-1v1h-1v1h-2v-1h-1zM14 9h1v1h1v1h-2zM19 9h5v1h1v1h-2v2h-1v-1h-1v-1h1v-1h-3zM17 10h2v1h-2zM16 11h1v1h1v1h2v-1h1v1h1v1h-6v-1h-1v-1h1zM19 11h1v1h-1zM25 11h1v3h-3v-1h2zM9 13h1v5h2v1h2v1h-1v1h3v-1h1v-2h-1v-1h1v-1h-1v-1h2v1h1v1h5v-1h-1v-1h3v3h-1v1h-1v-1h-2v1h1v2h-1v2h-3v-1h-5v1h1v1h-1v1h-1v-3h-1v-2h-2v-1h-1v-1h-2v-1h1v-1h1v-1h-1v-1h1zM14 13h1v1h-1zM1 14h1v4h-1zM13 14h1v1h-1zM15 14h1v1h-1zM22 14h1v1h-1zM14 15h1v1h-1zM19 15h2v1h-2zM11 16h1v1h-1zM13 16h1v1h1v1h1v1h-2v-1h-1zM18 18v3h3v-3zM1 19h7v7h-7zM19 19h1v1h-1zM25 19h1v2h-1zM2 20v5h5v-5zM9 20h1v3h1v-1h1v3h-1v1h-2v-1h1v-1h-1zM3 21h3v3h-3zM23 21h1v1h-1zM24 22h2v4h-3v-1h2v-2h-1zM18 23h1v1h-1zM22 23h2v1h-1v1h-4v-1h3zM15 24h1v1h-1zM17 24h1v1h-1zM12 25h1v1h-1zM14 25h1v1h-1zM16 25h1v1h-1zM18 25h1v1h-1z"/></svg>